<svg width="18" height="17" viewBox="0 0 18 17" fill="none" xmlns="http://www.w3.org/2000/svg">
<path d="M16.1838 0.748037C15.9466 0.510592 15.665 0.322222 15.3551 0.193699C15.0451 0.0651766 14.7128 -0.000976563 14.3772 -0.000976562C14.0417 -0.000976563 13.7094 0.0651766 13.3994 0.193699C13.0895 0.322222 12.8079 0.510592 12.5708 0.748037L2.44375 10.876C2.37386 10.945 2.32349 11.0313 2.29775 11.126L0.966751 15.934C0.939273 16.0311 0.93819 16.1337 0.963614 16.2314C0.989038 16.329 1.04005 16.4181 1.11138 16.4894C1.18272 16.5607 1.27179 16.6117 1.36942 16.6372C1.46704 16.6626 1.56968 16.6615 1.66675 16.634L6.47475 15.303C6.56951 15.2773 6.65577 15.2269 6.72475 15.157L16.8508 5.02704C17.3288 4.54738 17.5973 3.89776 17.5973 3.22054C17.5973 2.54331 17.3288 1.8937 16.8508 1.41404L16.1838 0.748037ZM3.68375 11.248L11.9718 2.95904L14.6418 5.62804L6.35475 13.917L3.68375 11.248ZM3.15075 12.319L5.28375 14.45L2.33075 15.268L3.15075 12.319ZM16.0507 4.22704L15.4508 4.82704L12.7727 2.15304L13.3728 1.55304C13.6388 1.28716 13.9996 1.13781 14.3758 1.13781C14.7519 1.13781 15.1127 1.28716 15.3788 1.55304L16.0448 2.21904C16.31 2.48507 16.4592 2.84525 16.4597 3.22092C16.4603 3.59659 16.3122 3.95721 16.0478 4.22404L16.0507 4.22704Z" fill="#10AAC0"/>
</svg>
