<?xml version="1.0" encoding="UTF-8" standalone="no" ?>
<!DOCTYPE svg PUBLIC "-//W3C//DTD SVG 1.1//EN" "http://www.w3.org/Graphics/SVG/1.1/DTD/svg11.dtd">
<svg xmlns="http://www.w3.org/2000/svg" xmlns:xlink="http://www.w3.org/1999/xlink" version="1.1" width="1080" height="1080" viewBox="0 0 1080 1080" xml:space="preserve">
<desc>Created with Fabric.js 5.2.4</desc>
<defs>
</defs>
<g transform="matrix(1 0 0 1 540 540)" id="a7bed44f-539e-4e85-b816-c26238f09058"  >
<rect style="stroke: none; stroke-width: 1; stroke-dasharray: none; stroke-linecap: butt; stroke-dashoffset: 0; stroke-linejoin: miter; stroke-miterlimit: 4; fill: rgb(255,255,255); fill-rule: nonzero; opacity: 1; visibility: hidden;" vector-effect="non-scaling-stroke"  x="-540" y="-540" rx="0" ry="0" width="1080" height="1080" />
</g>
<g transform="matrix(1 0 0 1 540 540)" id="8c0f60dd-3978-4094-b787-b01c6b931574"  >
</g>
<g transform="matrix(3.88 0 0 3.88 540 540)"  >
<g style="" vector-effect="non-scaling-stroke"   >
		<g transform="matrix(1.6 0 0 1.6 -57.64 0)"  >
<path style="stroke: rgb(3,174,238); stroke-width: 1; stroke-dasharray: none; stroke-linecap: butt; stroke-dashoffset: 0; stroke-linejoin: miter; stroke-miterlimit: 4; fill: rgb(3,174,238); fill-rule: nonzero; opacity: 1;" vector-effect="non-scaling-stroke"  transform=" translate(-214, -200)" d="M 250 224 C 245.6 224 242 227.6 242 232 L 242 256 C 242 260.4 238.4 264 234 264 L 194 264 C 189.6 264 186 260.4 186 256 L 186 144 C 186 139.6 189.6 136 194 136 L 234 136 C 238.4 136 242 139.6 242 144 L 242 168 C 242 172.4 245.6 176 250 176 C 254.4 176 258 172.4 258 168 L 258 144 C 258 130.8 247.2 120 234 120 L 194 120 C 180.8 120 170 130.8 170 144 L 170 256 C 170 269.2 180.8 280 194 280 L 234 280 C 247.2 280 258 269.2 258 256 L 258 232 C 258 227.6 254.4 224 250 224 z" stroke-linecap="round" />
</g>
		<g transform="matrix(1.6 0 0 1.6 25.6 -0.18)"  >
<path style="stroke: rgb(3,174,238); stroke-width: 1; stroke-dasharray: none; stroke-linecap: butt; stroke-dashoffset: 0; stroke-linejoin: miter; stroke-miterlimit: 4; fill: rgb(3,174,238); fill-rule: nonzero; opacity: 1;" vector-effect="non-scaling-stroke"  transform=" translate(-266.02, -199.89)" d="M 328.4 204.8 C 328.5 204.70000000000002 328.59999999999997 204.60000000000002 328.7 204.5 C 328.7 204.5 328.7 204.5 328.7 204.4 C 328.8 204.20000000000002 328.9 204 329 203.8 C 329.1 203.5 329.3 203.3 329.4 203 C 329.5 202.7 329.59999999999997 202.5 329.7 202.2 C 329.8 202 329.9 201.79999999999998 329.9 201.5 C 330.09999999999997 200.5 330.09999999999997 199.4 329.9 198.4 C 329.9 198.4 329.9 198.4 329.9 198.4 C 329.9 198.20000000000002 329.79999999999995 198 329.7 197.70000000000002 C 329.59999999999997 197.4 329.59999999999997 197.20000000000002 329.5 196.9 C 329.5 196.9 329.5 196.9 329.5 196.9 C 329.4 196.6 329.2 196.4 329.1 196.1 C 329 195.9 328.90000000000003 195.7 328.8 195.5 C 328.5 195.1 328.2 194.6 327.8 194.3 L 295.8 162.3 C 292.7 159.20000000000002 287.6 159.20000000000002 284.5 162.3 C 281.4 165.4 281.4 170.5 284.5 173.60000000000002 L 302.8 191.90000000000003 L 210 191.90000000000003 C 205.6 191.90000000000003 202 195.50000000000003 202 199.90000000000003 C 202 204.30000000000004 205.6 207.90000000000003 210 207.90000000000003 L 302.7 207.90000000000003 L 284.4 226.20000000000005 C 281.29999999999995 229.30000000000004 281.29999999999995 234.40000000000003 284.4 237.50000000000006 C 286 239.10000000000005 288 239.80000000000007 290.09999999999997 239.80000000000007 C 292.19999999999993 239.80000000000007 294.2 239.00000000000006 295.79999999999995 237.50000000000006 L 327.79999999999995 205.50000000000006 C 327.79999999999995 205.50000000000006 327.79999999999995 205.50000000000006 327.79999999999995 205.50000000000006 C 327.9 205.4 328.1 205.1 328.4 204.8 z" stroke-linecap="round" />
</g>
</g>
</g>
</svg>